# xmcd CD database file
#
# Track frame offsets:
#	150
#	24656
#	44961
#	64717
#	86033
#	104124
#	138662
#	164466
#	183820
#	213420
#	248011
#	260902
#
# Disc length: 3700 seconds
#
# Revision: 0
# Processed by: cddbd v1.5.2PL0 Copyright (c) Steve Scherf et al.
# Submitted via: CDex 1.70beta3
#
DISCID=ba0e720c
DTITLE=Jamie Saft, Steve Swallow, Bobby Previte with Iggy Pop - Loneliness Road
DYEAR=2017
DGENRE=Jazz
TTITLE0=Ten Nights
TTITLE1=Little Harbor
TTITLE2=Bookmaking
TTITLE3=Don't Lose Yourself (w. Iggy Pop)
TTITLE4=Henbane
TTITLE5=Pinkus
TTITLE6=The Barrier
TTITLE7=Nainsook
TTITLE8=Loneliness Road (w. Iggy Pop)
TTITLE9=Unclouded Moon
TTITLE10=Gates
TTITLE11=Everyday (w. Iggy Pop)
EXTD=YEAR: 2017
EXTT0=
EXTT1=
EXTT2=
EXTT3=
EXTT4=
EXTT5=
EXTT6=
EXTT7=
EXTT8=
EXTT9=
EXTT10=
EXTT11=
PLAYORDER=
